<?xml version="1.0" standalone="no"?>
<!DOCTYPE svg PUBLIC "-//W3C//DTD SVG 20010904//EN"
 "http://www.w3.org/TR/2001/REC-SVG-20010904/DTD/svg10.dtd">
<svg version="1.0" xmlns="http://www.w3.org/2000/svg"
 width="750.000000pt" height="750.000000pt" viewBox="0 0 750.000000 750.000000"
 preserveAspectRatio="xMidYMid meet">

<g transform="translate(0.000000,750.000000) scale(0.100000,-0.100000)"
fill="#000000" stroke="none">
<path d="M222 4563 c-32 -63 -41 -138 -40 -333 l1 -185 -34 -95 c-33 -93 -34
-98 -34 -250 1 -147 3 -160 33 -250 18 -52 49 -126 70 -165 40 -73 51 -79 107
-60 17 5 30 -5 68 -54 85 -110 190 -168 323 -178 151 -12 287 49 385 172 43
53 57 65 74 60 58 -19 59 -18 91 38 86 150 119 274 119 447 -1 126 -3 141 -34
230 l-33 95 -2 220 c-2 209 -3 223 -27 280 l-25 60 -44 -3 c-25 -2 -83 -15
-130 -30 -84 -27 -88 -28 -345 -27 -250 2 -263 3 -340 27 -44 14 -99 29 -122
33 -41 6 -42 6 -61 -32z m338 -168 c42 -22 88 -88 95 -139 20 -130 -90 -241
-220 -222 -194 30 -222 304 -39 372 46 17 120 12 164 -11z m570 0 c42 -22 88
-88 95 -139 20 -130 -90 -241 -220 -222 -194 30 -222 304 -39 372 46 17 120
12 164 -11z m-340 -232 c51 -34 91 -78 100 -113 20 -74 -21 -149 -103 -191
-35 -18 -39 -18 -70 -3 -122 61 -149 181 -60 265 65 62 91 70 133 42z"/>
<path d="M424 4311 c-31 -13 -54 -50 -54 -87 0 -96 135 -127 176 -40 18 38 14
72 -13 105 -20 24 -77 35 -109 22z"/>
<path d="M990 4308 c-50 -27 -63 -106 -24 -149 41 -45 124 -31 150 25 39 82
-46 166 -126 124z"/>
<path d="M3070 3977 c-14 -7 -25 -18 -25 -25 0 -7 11 -18 25 -25 l25 -13 0
-234 c0 -234 0 -235 -22 -245 -26 -11 -30 -40 -7 -49 28 -11 140 -6 152 6 18
18 15 27 -13 38 l-25 10 0 259 c0 223 -2 262 -16 275 -19 19 -60 20 -94 3z"/>
<path d="M3313 3978 c-13 -6 -23 -19 -23 -29 0 -11 9 -19 23 -21 l22 -3 3
-243 2 -242 -25 -10 c-56 -21 -14 -50 72 -50 32 0 63 4 70 8 21 13 18 32 -7
45 l-25 13 -3 264 c-2 196 -6 266 -15 272 -17 11 -68 9 -94 -4z"/>
<path d="M5730 3977 c-30 -15 -33 -40 -5 -46 11 -2 23 -8 27 -15 4 -6 8 -129
8 -273 0 -277 2 -290 44 -244 16 18 18 18 53 0 85 -43 173 -29 235 37 91 97
68 272 -43 329 -40 21 -117 19 -164 -5 -22 -11 -41 -20 -42 -20 -2 0 -3 51 -3
113 0 75 -4 117 -12 125 -16 16 -66 15 -98 -1z m250 -262 c40 -21 70 -75 77
-138 6 -57 -8 -96 -46 -131 -26 -24 -111 -25 -146 -2 -24 16 -25 20 -25 131
l0 115 33 20 c38 24 68 25 107 5z"/>
<path d="M6240 3977 c-14 -7 -25 -18 -25 -25 0 -7 11 -18 25 -25 l25 -13 0
-234 c0 -234 0 -235 -22 -245 -26 -11 -30 -40 -7 -49 28 -11 140 -6 152 6 18
18 15 27 -13 38 l-25 10 0 259 c0 223 -2 262 -16 275 -19 19 -60 20 -94 3z"/>
<path d="M1700 3952 c-48 -9 -45 -33 4 -47 22 -6 44 -18 49 -26 5 -9 53 -118
106 -244 107 -255 127 -283 179 -254 22 12 40 48 97 187 38 95 72 172 76 172
4 0 37 -74 74 -166 83 -201 115 -235 168 -181 13 12 65 126 116 254 51 128 98
236 104 241 7 5 26 14 42 19 17 5 30 16 30 24 0 32 -179 35 -206 3 -14 -17
-13 -18 26 -31 17 -6 29 -16 27 -24 -5 -18 -151 -399 -160 -414 -7 -14 -172
375 -172 407 0 10 15 21 43 31 66 22 55 41 -30 50 -146 17 -267 -22 -159 -51
75 -20 74 -35 -11 -256 -41 -105 -75 -191 -76 -193 -4 -4 -177 422 -177 435 0
6 11 14 25 18 91 23 -73 66 -175 46z"/>
<path d="M2826 3924 c-34 -34 -9 -74 46 -74 30 0 48 17 48 45 0 12 -5 26 -12
33 -17 17 -64 15 -82 -4z"/>
<path d="M3596 3924 c-34 -34 -9 -74 46 -74 30 0 48 17 48 45 0 12 -5 26 -12
33 -17 17 -64 15 -82 -4z"/>
<path d="M5313 3920 c-136 -28 -231 -134 -241 -270 -8 -121 38 -209 139 -265
50 -28 61 -30 159 -30 97 0 110 2 173 32 62 30 82 53 58 67 -5 4 -33 -6 -63
-21 -43 -22 -70 -28 -143 -31 -83 -3 -94 -1 -145 25 -171 88 -156 345 24 429
115 54 272 9 317 -90 45 -99 0 -283 -57 -235 -11 9 -14 38 -14 124 0 121 -9
147 -47 127 -13 -7 -36 -6 -73 4 -62 16 -98 12 -135 -18 -37 -29 -57 -73 -57
-132 -1 -128 103 -194 216 -136 39 19 39 19 64 0 31 -25 68 -25 108 -1 41 25
66 81 72 162 6 87 -26 163 -87 207 -60 44 -187 68 -268 52z m93 -181 l44 -11
0 -90 0 -89 -35 -15 c-93 -38 -145 0 -145 106 0 44 5 56 29 81 33 32 43 34
107 18z"/>
<path d="M7269 3777 c-15 -20 -19 -20 -93 -7 -101 17 -171 3 -221 -44 -30 -29
-35 -40 -35 -81 0 -41 5 -52 35 -80 34 -32 34 -33 15 -50 -22 -20 -26 -65 -10
-95 8 -15 5 -24 -15 -44 -37 -37 -35 -96 5 -130 37 -31 82 -41 180 -41 125 1
212 58 212 139 0 71 -32 87 -195 96 -131 7 -160 20 -136 57 10 18 23 20 88 20
145 -1 220 74 176 176 -5 13 -2 17 13 17 43 0 57 65 17 80 -14 5 -25 2 -36
-13z m-88 -66 c49 -50 37 -121 -27 -147 -69 -29 -154 20 -154 88 0 19 10 40
29 59 24 24 38 29 76 29 38 0 52 -5 76 -29z m55 -346 c37 -15 39 -21 25 -58
-20 -51 -159 -75 -231 -39 -40 19 -51 58 -28 100 13 24 14 25 106 18 52 -4
109 -13 128 -21z"/>
<path d="M2820 3767 c-41 -14 -45 -33 -10 -50 25 -12 25 -15 28 -145 l3 -131
-26 -7 c-28 -7 -34 -38 -9 -48 9 -3 42 -6 74 -6 32 0 65 3 74 6 25 10 19 41
-9 48 l-25 6 0 160 0 160 -26 10 c-30 12 -30 12 -74 -3z"/>
<path d="M3590 3767 c-41 -14 -45 -33 -10 -50 25 -12 25 -15 28 -145 l3 -131
-26 -7 c-28 -7 -34 -38 -9 -48 9 -3 42 -6 74 -6 32 0 65 3 74 6 25 10 19 41
-9 48 l-25 6 0 160 0 160 -26 10 c-30 12 -30 12 -74 -3z"/>
<path d="M3907 3766 c-72 -26 -101 -72 -66 -107 10 -10 30 -19 44 -19 20 0 25
5 25 25 0 58 86 97 134 62 17 -12 39 -94 30 -108 -2 -4 -30 -10 -61 -13 -150
-18 -203 -52 -203 -131 0 -108 154 -143 252 -57 16 13 18 12 27 -12 9 -23 16
-26 59 -26 48 0 72 12 72 37 0 7 -12 16 -26 19 -35 9 -44 39 -44 151 0 118
-15 155 -71 177 -48 19 -121 20 -172 2z m166 -233 c-12 -93 -51 -131 -120
-118 -42 8 -67 44 -58 84 9 40 22 50 97 66 93 20 88 21 81 -32z"/>
<path d="M4311 3767 c-46 -16 -50 -35 -12 -48 l31 -11 0 -134 0 -134 -25 -6
c-28 -7 -34 -38 -9 -48 28 -11 140 -6 152 6 19 19 14 36 -10 40 -22 3 -23 7
-26 115 -3 110 -2 112 25 143 33 36 91 50 128 30 35 -19 45 -59 45 -176 0
-102 0 -104 -25 -110 -28 -7 -34 -38 -9 -48 9 -3 42 -6 74 -6 32 0 65 3 74 6
25 10 19 41 -9 48 -25 6 -25 7 -25 122 0 108 1 116 24 139 26 26 82 41 122 31
39 -10 54 -58 54 -180 0 -104 0 -106 -25 -112 -28 -7 -34 -38 -9 -48 9 -3 42
-6 74 -6 32 0 65 3 74 6 25 9 19 41 -8 48 -23 6 -24 10 -28 123 -5 133 -22
184 -69 208 -46 24 -110 19 -174 -15 l-56 -30 -22 21 c-29 27 -60 39 -103 39
-39 0 -99 -22 -126 -47 -17 -15 -18 -15 -18 6 0 14 -9 25 -26 31 -14 6 -26 10
-27 9 -1 0 -17 -5 -36 -12z"/>
<path d="M6581 3766 c-169 -55 -188 -293 -31 -374 37 -20 56 -23 111 -19 81 5
137 34 176 90 25 36 28 49 28 118 0 71 -2 80 -31 116 -17 21 -45 46 -63 56
-41 25 -134 31 -190 13z m145 -53 c33 -21 64 -92 64 -146 0 -97 -43 -147 -126
-147 -47 0 -57 4 -88 34 -77 78 -62 232 27 272 36 16 88 11 123 -13z"/>
</g>
</svg>
